<svg id="Capa_1" enable-background="new 0 0 512 512" height="512" viewBox="0 0 512 512" width="512" xmlns="http://www.w3.org/2000/svg"><g><path d="m497 107h-171v-92c0-8.284-6.716-15-15-15h-110c-8.284 0-15 6.716-15 15v92h-171c-8.284 0-15 6.716-15 15v375c0 8.284 6.716 15 15 15h482c8.284 0 15-6.716 15-15v-375c0-8.284-6.716-15-15-15zm-281-77h80v111c0 22.056-17.944 40-40 40s-40-17.944-40-40zm266 452h-452v-345h156v4c0 38.598 31.402 70 70 70s70-31.402 70-70v-4h156z"/><path d="m256 241h-180c-8.284 0-15 6.716-15 15v180c0 8.284 6.716 15 15 15h180c8.284 0 15-6.716 15-15v-180c0-8.284-6.716-15-15-15zm-105 105c0-8.271 6.729-15 15-15s15 6.729 15 15-6.729 15-15 15-15-6.729-15-15zm15 45c16.542 0 30 13.458 30 30h-60c0-16.542 13.458-30 30-30zm75 30h-15c0-19.601-9.45-37.035-24.031-47.992 22.161-29.439 1.125-72.008-35.969-72.008-24.813 0-45 20.187-45 45 0 10.127 3.364 19.481 9.031 27.008-14.581 10.957-24.031 28.391-24.031 47.992h-15v-150h150z"/><path d="m316 241c-8.284 0-15 6.716-15 15s6.716 15 15 15h120c8.284 0 15-6.716 15-15s-6.716-15-15-15z"/><path d="m436 301h-120c-8.284 0-15 6.716-15 15s6.716 15 15 15h120c8.284 0 15-6.716 15-15s-6.716-15-15-15z"/><path d="m436 361h-120c-8.284 0-15 6.716-15 15s6.716 15 15 15h120c8.284 0 15-6.716 15-15s-6.716-15-15-15z"/><path d="m436 421h-120c-8.284 0-15 6.716-15 15s6.716 15 15 15h120c8.284 0 15-6.716 15-15s-6.716-15-15-15z"/><circle cx="256" cy="137" r="15"/></g></svg>