<svg id="Capa_1" enable-background="new 0 0 512 512" height="512" viewBox="0 0 512 512" width="512" xmlns="http://www.w3.org/2000/svg"><g><path d="m105 272h60c8.284 0 15-6.716 15-15v-60c0-8.284-6.716-15-15-15h-60c-8.284 0-15 6.716-15 15v60c0 8.284 6.716 15 15 15zm15-60h30v30h-30z"/><path d="m316 242h-90c-8.284 0-15 6.716-15 15s6.716 15 15 15h90c8.284 0 15-6.716 15-15s-6.716-15-15-15z"/><path d="m316 302h-210c-8.284 0-15 6.716-15 15s6.716 15 15 15h210c8.284 0 15-6.716 15-15s-6.716-15-15-15z"/><path d="m316 362h-210c-8.284 0-15 6.716-15 15s6.716 15 15 15h210c8.284 0 15-6.716 15-15s-6.716-15-15-15z"/><path d="m226 422h-120c-8.284 0-15 6.716-15 15s6.716 15 15 15h120c8.284 0 15-6.716 15-15s-6.716-15-15-15z"/><path d="m476.604 94.391c-95.526-95.489-89.99-90.082-91.086-90.983-2.581-2.117-5.929-3.408-9.518-3.408h-240c-8.284 0-15 6.716-15 15v77h-75c-8.284 0-15 6.716-15 15v390c0 8.284 6.716 15 15 15h330c8.284 0 15-6.716 15-15v-77h75c8.284 0 15-6.716 15-15v-300c0-4.18-1.748-7.963-4.396-10.609zm-85.604-43.178 38.787 38.787h-38.787zm-30 430.787h-300v-360h210v75c0 8.284 6.716 15 15 15h75zm-21.213-300h-38.787v-38.787zm51.213 208c-.028-205.813.068-193.065-.076-194.497-.353-3.563-1.994-6.787-4.32-9.112-96.752-95.91-91.265-94.391-100.604-94.391h-135v-62h210v75c0 8.284 6.716 15 15 15h75v270z"/></g></svg>