<svg id="Capa_1" enable-background="new 0 0 512 512" height="512" viewBox="0 0 512 512" width="512" xmlns="http://www.w3.org/2000/svg"><g><path d="m482 31h-45v-16c0-8.284-6.716-15-15-15s-15 6.716-15 15v16h-30v-16c0-8.284-6.716-15-15-15s-15 6.716-15 15v16h-181v-16c0-8.284-6.716-15-15-15s-15 6.716-15 15v16h-30v-16c0-8.284-6.716-15-15-15s-15 6.716-15 15v16h-46c-8.284 0-15 6.716-15 15v451c0 8.284 6.716 15 15 15h452c8.284 0 15-6.716 15-15 0-15.566 0-434.004 0-451 0-8.284-6.716-15-15-15zm-286 211v60h-60v-60zm90 0v60h-60v-60zm90 0v60h-60v-60zm91 0v60h-61v-60zm-181 90v60h-60v-60zm-180-30h-61v-60h61zm-61 30h61v60h-61zm91 0h60v60h-60zm60 90v60h-60v-60zm30 0h60v60h-60zm90 0h60v60h-60zm0-30v-60h60v60zm90-60h61v60h-61zm-361-271h31v15c0 8.284 6.716 15 15 15s15-6.716 15-15v-15h30v15c0 8.284 6.716 15 15 15s15-6.716 15-15v-15h181v15c0 8.284 6.716 15 15 15s15-6.716 15-15v-15h30v15c0 8.284 6.716 15 15 15s15-6.716 15-15v-15h30v151h-422zm0 361h61v60h-61zm361 60v-60h61v60z"/><path d="m166.5 152h179c8.284 0 15-6.716 15-15s-6.716-15-15-15h-179c-8.284 0-15 6.716-15 15s6.716 15 15 15z"/></g></svg>