<svg id="Capa_1" enable-background="new 0 0 512 512" height="512" viewBox="0 0 512 512" width="512" xmlns="http://www.w3.org/2000/svg"><g><path d="m392.314 275.918-76.314-16.952v-12.658c24.483-12.804 41.239-38.439 41.239-67.93v-92.932c16.948-17.472 25.525-41.119 25.525-70.446 0-8.284-6.716-15-15-15h-146.505c-40.814 0-74.02 33.205-74.02 74.02-.001 9.828 0 92.698 0 104.358 0 32.403 20.228 60.152 48.711 71.336v9.254l-76.27 16.948c-34.113 7.579-58.73 37.899-58.73 73.214v147.87c0 8.284 6.716 15 15 15s15-6.716 15-15v-147.87c0-21.254 14.49-39.317 35.238-43.929l57.296-12.732-14.945 29.972c-12.046 24.162 9.39 51.331 35.582 45.49l31.671-7.059-24.326 101.131c-1.19 4.946.208 10.159 3.715 13.846l29.95 31.489c5.776 6.072 15.404 6.226 21.372.371l32.107-31.489c3.827-3.753 5.36-9.264 4.021-14.454l-25.991-100.797c30.983 6.672 32.272 7.749 38.329 7.749 23.151 0 39.283-24.63 28.491-46.276l-14.94-29.962 57.287 12.725c20.75 4.61 35.242 22.675 35.242 43.93v147.865c0 8.284 6.716 15 15 15s15-6.716 15-15v-147.866c.001-34.944-24.252-65.553-58.735-73.216zm-106.314-9.251-30 46.615-30.05-46.693v-11.589c56.87-.084 54.439.181 60.05-.21zm-108.761-192.647c0-24.272 19.747-44.02 44.02-44.02h130.468c-2.463 16.669-9.33 29.495-20.793 38.956-35.902 29.629-109.071 19.438-138.862 13.682-4.921-.952-9.957-.922-14.832.089v-8.707zm0 104.358c0-6.006 0-52.427 0-58.414.043-.133-.384-3.594 2.736-6.214 1.048-.878 3.271-2.258 6.405-1.657 44.058 8.514 99.921 12.372 140.859-6.015v72.3c0 25.707-20.915 46.622-46.622 46.622h-56.756c-25.707 0-46.622-20.915-46.622-46.622zm18.361 159.559c-1.108-1.417-1.801 1.077 17.007-36.645l19.143 29.745c-37.256 8.304-35.049 8.307-36.15 6.9zm60.772 137.688-13.83-14.539 13.964-58.051 14.913 57.832zm60.028-137.688c-1.102 1.409 1.106 1.405-36.15-6.899l19.143-29.745c18.764 37.631 18.115 35.226 17.007 36.644z"/><path d="m151 382.308c-8.284 0-15 6.716-15 15v99.692c0 8.284 6.716 15 15 15s15-6.716 15-15v-99.692c0-8.285-6.716-15-15-15z"/><path d="m361 382.308c-8.284 0-15 6.716-15 15v99.692c0 8.284 6.716 15 15 15s15-6.716 15-15v-99.692c0-8.285-6.716-15-15-15z"/></g></svg>