<svg id="Capa_1" enable-background="new 0 0 512 512" height="512" viewBox="0 0 512 512" width="512" xmlns="http://www.w3.org/2000/svg"><g><path d="m466 31h-195v-16c0-8.284-6.716-15-15-15s-15 6.716-15 15v16h-195c-8.284 0-15 6.716-15 15s6.716 15 15 15h15v255c0 24.813 20.187 45 45 45h11.469l-15.633 97.605c-4.489 28.028 17.182 53.395 45.523 53.395 22.776 0 41.922-16.323 45.523-38.812l17.969-112.188h90.175l17.969 112.188c3.602 22.489 22.747 38.812 45.524 38.812 28.384 0 50.006-25.409 45.523-53.395l-15.633-97.605h11.591c24.813 0 45-20.187 45-45v-255h15c8.284 0 15-6.716 15-15s-6.716-15-15-15zm-302.74 437.443c-1.258 7.855-7.945 13.557-15.9 13.557-9.854 0-17.483-8.778-15.9-18.65l16.392-102.35h32.617zm217.159-5.093c1.571 9.797-5.962 18.65-15.9 18.65-7.955 0-14.643-5.701-15.9-13.557l-17.21-107.443h32.617zm40.581-147.35c0 8.271-6.729 15-15 15h-300c-8.271 0-15-6.729-15-15v-255h330z"/><path d="m256 300.951c62.01 0 110.017-53.261 104.747-114.023-7.645-88.048-115.767-128.4-178.993-65.174-65.536 65.535-19.605 179.197 74.246 179.197zm62.573-63.592-29.194-29.195 41.075-3.558c-1.318 11.5-5.266 22.752-11.881 32.753zm9.33-62.643-56.903 4.929v-57.092c27.433 5.559 49.161 25.848 56.903 52.163zm-86.903-52.164c.025 79.912-.267 74.717.629 77.734 1.535 5.169.039 2.577 55.73 58.287-29.105 19.249-68.783 16.071-94.393-9.539-42.449-42.452-19.871-114.752 38.034-126.482z"/></g></svg>